<svg width="60" height="60" viewBox="0 0 60 60" fill="none" xmlns="http://www.w3.org/2000/svg">
<path fill-rule="evenodd" clip-rule="evenodd" d="M38.5829 48.0699C35.9821 49.3074 33.0719 50 30 50C18.9543 50 10 41.0457 10 30C10 18.9543 18.9543 10 30 10C41.0457 10 50 18.9543 50 30C50 30.675 49.9666 31.3422 49.9012 32H59.9344C59.9779 31.339 60 30.6721 60 30C60 13.4315 46.5685 0 30 0C13.4315 0 0 13.4315 0 30C0 46.5685 13.4315 60 30 60C34.0172 60 37.8499 59.2104 41.3515 57.778L38.5829 48.0699Z" fill="white"/>
</svg>
