<svg width="32" height="32" viewBox="0 0 32 32" fill="none" xmlns="http://www.w3.org/2000/svg">
<mask id="path-1-inside-1_47_15" fill="white">
<path fill-rule="evenodd" clip-rule="evenodd" d="M11.543 11.9819C12.2926 11.1489 13.2838 10.5161 14.4469 10.2045C17.6477 9.34681 20.9377 11.2463 21.7953 14.4471C22.653 17.6479 20.7535 20.9379 17.5527 21.7956C14.3519 22.6532 11.0619 20.7537 10.2042 17.5529C10.11 17.2013 10.0491 16.8486 10.0195 16.4981L0.302697 19.1017C0.371532 19.4483 0.452202 19.7949 0.544971 20.1411C2.83204 28.6766 11.6054 33.7419 20.1409 31.4548C28.6763 29.1678 33.7417 20.3944 31.4546 11.8589C29.1675 3.32345 20.3941 -1.74187 11.8587 0.545201C9.7892 1.09972 7.92371 2.03553 6.31755 3.25681L11.543 11.9819Z"/>
</mask>
<path fill-rule="evenodd" clip-rule="evenodd" d="M11.543 11.9819C12.2926 11.1489 13.2838 10.5161 14.4469 10.2045C17.6477 9.34681 20.9377 11.2463 21.7953 14.4471C22.653 17.6479 20.7535 20.9379 17.5527 21.7956C14.3519 22.6532 11.0619 20.7537 10.2042 17.5529C10.11 17.2013 10.0491 16.8486 10.0195 16.4981L0.302697 19.1017C0.371532 19.4483 0.452202 19.7949 0.544971 20.1411C2.83204 28.6766 11.6054 33.7419 20.1409 31.4548C28.6763 29.1678 33.7417 20.3944 31.4546 11.8589C29.1675 3.32345 20.3941 -1.74187 11.8587 0.545201C9.7892 1.09972 7.92371 2.03553 6.31755 3.25681L11.543 11.9819Z" fill="#EB7100"/>
<path d="M11.543 11.9819L10.6851 12.4957L11.3807 13.6572L12.2863 12.6508L11.543 11.9819ZM10.0195 16.4981L11.0159 16.414L10.9153 15.2228L9.76065 15.5322L10.0195 16.4981ZM0.302697 19.1017L0.0438778 18.1358L-0.860562 18.3782L-0.678142 19.2966L0.302697 19.1017ZM6.31755 3.25681L5.71228 2.46079L4.99969 3.00262L5.45964 3.77061L6.31755 3.25681ZM14.1881 9.23853C12.8326 9.60173 11.6747 10.3406 10.7996 11.313L12.2863 12.6508C12.9104 11.9572 13.735 11.4305 14.7057 11.1704L14.1881 9.23853ZM22.7613 14.1883C21.7607 10.454 17.9223 8.23794 14.1881 9.23853L14.7057 11.1704C17.373 10.4557 20.1147 12.0386 20.8294 14.7059L22.7613 14.1883ZM17.8115 22.7615C21.5458 21.7609 23.7619 17.9225 22.7613 14.1883L20.8294 14.7059C21.5441 17.3732 19.9612 20.1149 17.2939 20.8296L17.8115 22.7615ZM9.2383 17.8117C10.2389 21.546 14.0773 23.7621 17.8115 22.7615L17.2939 20.8296C14.6265 21.5444 11.8849 19.9614 11.1702 17.2941L9.2383 17.8117ZM9.02301 16.5823C9.05757 16.9915 9.12869 17.4027 9.2383 17.8117L11.1702 17.2941C11.0913 16.9999 11.0406 16.7057 11.0159 16.414L9.02301 16.5823ZM0.561516 20.0677L10.2783 17.4641L9.76065 15.5322L0.0438778 18.1358L0.561516 20.0677ZM-0.678142 19.2966C-0.605043 19.6646 -0.5194 20.0325 -0.420955 20.3999L1.5109 19.8823C1.4238 19.5573 1.34811 19.232 1.28354 18.9069L-0.678142 19.2966ZM-0.420955 20.3999C2.00906 29.4689 11.3308 34.8508 20.3997 32.4208L19.8821 30.4889C11.8801 32.633 3.65502 27.8843 1.5109 19.8823L-0.420955 20.3999ZM20.3997 32.4208C29.4686 29.9907 34.8505 20.669 32.4205 11.6001L30.4887 12.1177C32.6328 20.1197 27.8841 28.3448 19.8821 30.4889L20.3997 32.4208ZM32.4205 11.6001C29.9905 2.53117 20.6688 -2.85074 11.5999 -0.420725L12.1175 1.51113C20.1195 -0.633001 28.3445 4.11574 30.4887 12.1177L32.4205 11.6001ZM11.5999 -0.420725C9.40281 0.167972 7.42001 1.16228 5.71228 2.46079L6.92282 4.05283C8.4274 2.90879 10.1756 2.03146 12.1175 1.51113L11.5999 -0.420725ZM12.4009 11.4681L7.17546 2.74301L5.45964 3.77061L10.6851 12.4957L12.4009 11.4681Z" fill="black" mask="url(#path-1-inside-1_47_15)"/>
</svg>
