<svg width="100" height="100" viewBox="0 0 100 100" fill="none" xmlns="http://www.w3.org/2000/svg">
<path d="M100 50C100 39.5528 96.7276 29.3681 90.6423 20.8761C84.5571 12.3842 75.9647 6.01163 66.072 2.65349C56.1792 -0.704639 45.4831 -0.87967 35.4858 2.15298C25.4885 5.18564 16.6922 11.2736 10.3323 19.5619C3.97251 27.8502 0.368604 37.9225 0.0267818 48.364C-0.31504 58.8056 2.62239 69.092 8.42653 77.7785C14.2307 86.465 22.6099 93.1153 32.3875 96.7953C42.1651 100.475 52.8498 101 62.941 98.2963L58.4888 81.6807C55.8031 82.3906 52.9825 82.7688 50.0736 82.7688C31.9353 82.7688 17.2312 68.0647 17.2312 49.9264C17.2312 31.788 31.9353 17.0839 50.0736 17.0839C68.212 17.0839 82.9161 31.788 82.9161 49.9264L82.916 50H100Z" fill="white"/>
<path d="M50 50L58.4888 81.6807C72.5274 77.9702 82.8826 65.1971 82.916 50H50Z" fill="white"/>
</svg>
