<svg width="84" height="26" viewBox="0 0 84 26" fill="none" xmlns="http://www.w3.org/2000/svg">
<g id="Amazon_logo 1" clip-path="url(#clip0_2246_7301)">
<path id="path8" d="M51.9741 20.5009C47.1445 24.0607 40.1442 25.96 34.117 25.96C25.666 25.96 18.058 22.8343 12.3022 17.6356C11.8499 17.2268 12.2551 16.6697 12.7978 16.9881C19.0094 20.6022 26.6899 22.7764 34.6235 22.7764C39.9741 22.7764 45.8602 21.6694 51.2723 19.3722C52.0899 19.0249 52.7737 19.9076 51.9741 20.5009Z" fill="white"/>
<path id="path10" d="M53.9818 18.2037C53.3668 17.415 49.901 17.831 48.3454 18.0155C47.8714 18.0734 47.7991 17.661 48.226 17.3643C50.9863 15.4216 55.5157 15.9824 56.0439 16.6336C56.5721 17.2884 55.9064 21.8286 53.3125 23.9956C52.9146 24.3285 52.5347 24.1512 52.712 23.7098C53.2944 22.2555 54.6004 18.9959 53.9818 18.2037Z" fill="white"/>
<path id="path12" d="M48.4541 3.64956V1.76111C48.4541 1.47531 48.6711 1.28357 48.9316 1.28357H57.3862C57.6576 1.28357 57.8746 1.47893 57.8746 1.76111V3.37823C57.871 3.64956 57.6431 4.0041 57.2379 4.56485L52.8568 10.8199C54.4848 10.7801 56.2032 11.0225 57.6793 11.8546C58.0121 12.0427 58.1025 12.3176 58.1279 12.589V14.604C58.1279 14.879 57.824 15.201 57.5056 15.0345C54.9045 13.6707 51.4495 13.5223 48.5734 15.049C48.2804 15.2082 47.9729 14.8898 47.9729 14.6149V12.7011C47.9729 12.3936 47.9765 11.869 48.284 11.4024L53.3597 4.12348H48.9425C48.6711 4.12348 48.4541 3.93175 48.4541 3.64956Z" fill="white"/>
<path id="path14" d="M17.6131 15.4325H15.0409C14.7949 15.4144 14.5995 15.2299 14.5815 14.9947V1.79366C14.5815 1.52956 14.8021 1.31973 15.0771 1.31973H17.4756C17.7253 1.33058 17.9242 1.52233 17.9423 1.7611V3.48675H17.9894C18.6152 1.81898 19.791 1.04117 21.3755 1.04117C22.9854 1.04117 23.9912 1.81898 24.7147 3.48675C25.337 1.81898 26.7515 1.04117 28.2673 1.04117C29.3454 1.04117 30.5248 1.48615 31.2447 2.48464C32.0587 3.59528 31.8923 5.20879 31.8923 6.62332L31.8887 14.9549C31.8887 15.219 31.668 15.4325 31.393 15.4325H28.8244C28.5676 15.4144 28.3614 15.2082 28.3614 14.9549V7.95826C28.3614 7.40113 28.412 6.01193 28.289 5.48374C28.0973 4.5974 27.5221 4.34777 26.7768 4.34777C26.1546 4.34777 25.5034 4.76381 25.2393 5.42947C24.9752 6.09513 25.0005 7.20939 25.0005 7.95826V14.9549C25.0005 15.219 24.7798 15.4325 24.5049 15.4325H21.9363C21.6758 15.4144 21.4732 15.2082 21.4732 14.9549L21.4696 7.95826C21.4696 6.48585 21.712 4.31883 19.885 4.31883C18.0364 4.31883 18.1087 6.43158 18.1087 7.95826V14.9549C18.1087 15.219 17.8881 15.4325 17.6131 15.4325Z" fill="white"/>
<path id="path16" d="M65.1535 1.04117C68.9702 1.04117 71.0359 4.31883 71.0359 8.48645C71.0359 12.513 68.7531 15.7074 65.1535 15.7074C61.4055 15.7074 59.3651 12.4298 59.3651 8.34536C59.3651 4.23562 61.4309 1.04117 65.1535 1.04117ZM65.1752 3.73638C63.2795 3.73638 63.1601 6.31943 63.1601 7.92932C63.1601 9.54283 63.1348 12.9869 65.1535 12.9869C67.1469 12.9869 67.2409 10.2085 67.2409 8.51539C67.2409 7.40113 67.1939 6.06981 66.8575 5.01343C66.568 4.09453 65.9928 3.73638 65.1752 3.73638Z" fill="white"/>
<path id="path18" d="M75.9848 15.4325H73.4234C73.1666 15.4144 72.9603 15.2082 72.9603 14.9549L72.9567 1.75024C72.9784 1.50785 73.1919 1.31973 73.4524 1.31973H75.8364C76.0607 1.33058 76.2452 1.48253 76.2959 1.68874V3.70743H76.3429C77.0628 1.90219 78.0722 1.04117 79.8485 1.04117C81.0025 1.04117 82.1277 1.45721 82.8512 2.59679C83.5241 3.65317 83.5241 5.42947 83.5241 6.70653V15.0164C83.4952 15.248 83.2817 15.4325 83.0285 15.4325H80.449C80.2139 15.4144 80.0185 15.2407 79.9932 15.0164V7.84611C79.9932 6.40264 80.1596 4.28989 78.3833 4.28989C77.7575 4.28989 77.1822 4.70954 76.8964 5.34626C76.5347 6.15302 76.4876 6.95615 76.4876 7.84611V14.9549C76.484 15.219 76.2597 15.4325 75.9848 15.4325Z" fill="white"/>
<path id="use28" d="M41.7145 9.12676V8.56963C39.8549 8.56963 37.8905 8.96758 37.8905 11.1599C37.8905 12.2706 38.4657 13.0231 39.4534 13.0231C40.1769 13.0231 40.8245 12.5781 41.2333 11.8545C41.7398 10.9646 41.7145 10.1289 41.7145 9.12676ZM44.3084 15.3963C44.1383 15.5482 43.8923 15.5591 43.7006 15.4578C42.8468 14.7487 42.6949 14.4195 42.2246 13.743C40.8136 15.1828 39.8151 15.6133 37.9846 15.6133C35.8212 15.6133 34.1353 14.2784 34.1353 11.6049C34.1353 9.51748 35.2677 8.09571 36.8776 7.4011C38.274 6.78609 40.2239 6.67756 41.7145 6.50753V6.1747C41.7145 5.5633 41.7615 4.83975 41.4033 4.31157C41.0886 3.83764 40.488 3.64229 39.9599 3.64229C38.9795 3.64229 38.104 4.14515 37.8905 5.18705C37.8471 5.41859 37.6771 5.64651 37.4455 5.65736L34.9493 5.38965C34.7395 5.34262 34.5079 5.17258 34.5658 4.85061C35.141 1.82619 37.8724 0.91452 40.318 0.91452C41.5697 0.91452 43.205 1.24735 44.1926 2.19519C45.4443 3.36372 45.3249 4.92296 45.3249 6.61968V10.6281C45.3249 11.8328 45.8242 12.361 46.2945 13.0122C46.4609 13.2437 46.4971 13.5223 46.2873 13.6959C45.7627 14.1337 44.8293 14.9477 44.3156 15.4035L44.3084 15.3963Z" fill="white"/>
<path id="path30" d="M7.99363 9.12682V8.56969C6.13411 8.56969 4.16969 8.96764 4.16969 11.16C4.16969 12.2706 4.74491 13.0231 5.73255 13.0231C6.45609 13.0231 7.10366 12.5781 7.51247 11.8546C8.01895 10.9646 7.99363 10.1289 7.99363 9.12682ZM10.5875 15.3963C10.4175 15.5483 10.1715 15.5591 9.97976 15.4578C9.12598 14.7488 8.97403 14.4196 8.50373 13.743C7.09281 15.1829 6.09432 15.6134 4.26375 15.6134C2.10035 15.6134 0.41449 14.2785 0.41449 11.605C0.41449 9.51754 1.54684 8.09577 3.15673 7.40117C4.55317 6.78615 6.50312 6.67762 7.99363 6.50759V6.17476C7.99363 5.56336 8.04066 4.83981 7.6825 4.31163C7.36776 3.8377 6.76722 3.64235 6.23903 3.64235C5.25863 3.64235 4.38313 4.14521 4.16969 5.18712C4.12628 5.41865 3.95624 5.64657 3.72471 5.65742L1.22848 5.38971C1.01865 5.34268 0.787115 5.17264 0.844999 4.85067C1.42022 1.82625 4.1516 0.914581 6.59719 0.914581C7.84892 0.914581 9.48413 1.24741 10.4718 2.19526C11.7235 3.36378 11.6041 4.92302 11.6041 6.61974V10.6282C11.6041 11.8329 12.1034 12.3611 12.5737 13.0123C12.7401 13.2438 12.7763 13.5224 12.5664 13.696C12.0419 14.1338 11.1085 14.9477 10.5948 15.4036L10.5875 15.3963Z" fill="white"/>
</g>
<defs>
<clipPath id="clip0_2246_7301">
<rect width="83.2094" height="25.1146" fill="white" transform="translate(0.364136 0.880585)"/>
</clipPath>
</defs>
</svg>
