<svg width="120" height="15" viewBox="0 0 120 15" fill="none" xmlns="http://www.w3.org/2000/svg">
<g id="Logo - Dash" clip-path="url(#clip0_2246_7294)">
<path id="Vector" d="M34.7409 4.38484V10.5011H36.2659C36.6551 10.4953 37.0391 10.4116 37.3954 10.2548C37.7516 10.0979 38.0728 9.87127 38.3399 9.58815C38.8881 9.00774 39.1881 8.23622 39.1759 7.43793C39.1875 7.04141 39.1207 6.6465 38.9792 6.2759C38.8377 5.90529 38.6244 5.56629 38.3516 5.27837C38.0833 4.99486 37.7599 4.76926 37.4012 4.61545C37.0425 4.46165 36.6562 4.3829 36.2659 4.38406H34.7417L34.7409 4.38484ZM36.2659 2.46713C39.1082 2.46713 41.2584 4.66946 41.2584 7.43793C41.2584 10.2064 39.1082 12.4212 36.2659 12.4212H32.9025C32.8704 12.4208 32.8388 12.414 32.8093 12.4014C32.7798 12.3887 32.7531 12.3704 32.7307 12.3474C32.7084 12.3245 32.6907 12.2973 32.6788 12.2676C32.6669 12.2378 32.661 12.2059 32.6614 12.1739V2.72454C32.6614 2.58767 32.7695 2.47647 32.9025 2.47647L36.2659 2.46713ZM48.5848 10.7142C49.8757 10.7181 51.0414 9.9241 51.5383 8.7024C51.7817 8.10549 51.8468 7.45079 51.7256 6.81764C51.6044 6.1845 51.3022 5.6001 50.8555 5.13528C50.4167 4.67809 49.8495 4.36479 49.2288 4.23677C48.6082 4.10875 47.9633 4.17204 47.3794 4.41828C46.1865 4.9222 45.4073 6.11435 45.4049 7.43793C45.4049 9.24209 46.8257 10.7056 48.5848 10.7142ZM48.5855 2.24161C51.5772 2.24161 53.8643 4.59947 53.8643 7.43793C53.8643 10.2764 51.5772 12.6342 48.5848 12.6342C45.5931 12.6342 43.3255 10.288 43.3255 7.43793C43.3255 4.58781 45.6133 2.24161 48.5855 2.24161ZM61.1315 10.7142C62.8913 10.7095 64.3152 9.24443 64.3137 7.44026C64.3114 5.63454 62.8843 4.17254 61.1253 4.17176C59.3647 4.17176 57.9369 5.63298 57.9346 7.43793C57.9346 8.30735 58.2713 9.141 58.8709 9.75535C59.1643 10.0581 59.5155 10.299 59.9037 10.4637C60.2918 10.6283 60.7099 10.7135 61.1315 10.7142ZM61.1307 2.24161C64.113 2.24161 66.4001 4.58781 66.4001 7.43793C66.4001 10.288 64.1037 12.6342 61.1307 12.6342C58.1585 12.6342 55.852 10.288 55.852 7.43793C55.852 4.58781 58.1391 2.24161 61.1307 2.24161ZM73.3757 4.38484H71.2255V7.01721H73.3757C73.5456 7.02474 73.7153 6.99737 73.8742 6.93678C74.0331 6.87619 74.1779 6.78367 74.2996 6.66493C74.5485 6.42386 74.69 6.08947 74.6931 5.73797C74.6994 5.55964 74.6695 5.38188 74.6054 5.21537C74.5412 5.04887 74.4441 4.89704 74.3198 4.769C74.1978 4.643 74.0508 4.54393 73.8882 4.47817C73.7256 4.41241 73.551 4.38141 73.3757 4.38717V4.38484ZM69.1453 2.72454C69.1453 2.58767 69.2541 2.47647 69.3871 2.47647H73.4356C75.3658 2.47647 76.7624 3.9268 76.7624 5.74807C76.7772 6.97989 76.1045 8.11138 75.0306 8.66274L76.8978 12.0479C76.9236 12.0868 76.9381 12.1321 76.9398 12.1788C76.9414 12.2254 76.9301 12.2717 76.9071 12.3123C76.8846 12.3523 76.8511 12.385 76.8106 12.4065C76.77 12.428 76.7242 12.4374 76.6785 12.4336H75.0399C74.9945 12.4342 74.9498 12.422 74.911 12.3984C74.8722 12.3747 74.8409 12.3405 74.8206 12.2998L73.0211 8.94969H71.2177V12.1661C71.2183 12.1982 71.2124 12.2301 71.2006 12.26C71.1887 12.2899 71.1711 12.3171 71.1487 12.3402C71.1263 12.3632 71.0996 12.3816 71.0701 12.3943C71.0405 12.407 71.0088 12.4138 70.9767 12.4142H69.398C69.3659 12.4138 69.3341 12.407 69.3046 12.3943C69.2751 12.3816 69.2484 12.3632 69.226 12.3402C69.2036 12.3171 69.186 12.2899 69.1741 12.26C69.1623 12.2301 69.1564 12.1982 69.1569 12.1661L69.1461 2.72532L69.1453 2.72454ZM82.1843 4.4315V10.5486H83.7085C84.0976 10.5433 84.4817 10.46 84.838 10.3038C85.1944 10.1475 85.5158 9.92134 85.7833 9.6387C86.3318 9.05897 86.6323 8.28802 86.6208 7.49003C86.6333 7.09303 86.5671 6.69748 86.426 6.32618C86.2849 5.95488 86.0718 5.61516 85.7988 5.32658C85.5302 5.04259 85.2061 4.81671 84.8467 4.66289C84.4873 4.50907 84.1002 4.43059 83.7093 4.43228L82.1843 4.4315ZM83.7085 2.51146C86.5508 2.51146 88.7011 4.71612 88.7011 7.49003C88.7011 10.2639 86.5508 12.4686 83.7085 12.4686H80.3552C80.3231 12.4682 80.2913 12.4614 80.2618 12.4488C80.2323 12.4361 80.2056 12.4177 80.1832 12.3946C80.1608 12.3716 80.1432 12.3443 80.1313 12.3144C80.1195 12.2846 80.1136 12.2527 80.1141 12.2205V2.77198C80.1141 2.63433 80.2222 2.52312 80.3552 2.52312L83.7085 2.51146ZM95.0436 4.94398L93.8639 8.21481H96.221L95.0436 4.94398ZM93.1718 10.0633L92.3996 12.2407C92.3841 12.292 92.352 12.3366 92.3084 12.3676C92.2647 12.3986 92.212 12.4141 92.1585 12.4118H90.4834C90.4408 12.4158 90.3978 12.4082 90.3591 12.3899C90.3204 12.3716 90.2873 12.3431 90.2634 12.3076C90.2389 12.2717 90.2241 12.2301 90.2204 12.1867C90.2167 12.1434 90.2243 12.0999 90.2424 12.0603L93.8616 2.62033C93.8785 2.57055 93.9112 2.52765 93.9547 2.49817C93.9982 2.46869 94.0502 2.45424 94.1027 2.45702H95.9768C96.0294 2.45406 96.0816 2.46843 96.1253 2.49793C96.1689 2.52742 96.2018 2.57042 96.2187 2.62033L99.8379 12.0603C99.8558 12.0999 99.8633 12.1435 99.8595 12.1868C99.8557 12.2302 99.8407 12.2718 99.8161 12.3076C99.7921 12.343 99.759 12.3713 99.7202 12.3895C99.6815 12.4077 99.6386 12.4151 99.5961 12.4111H97.9217C97.8683 12.4133 97.8156 12.3978 97.7719 12.3668C97.7283 12.3358 97.6962 12.2912 97.6807 12.24L96.9085 10.0625H93.1718V10.0633ZM101.78 5.15628C101.78 3.59318 103.097 2.24161 105.177 2.24161C106.298 2.2166 107.382 2.63564 108.195 3.40732C108.219 3.43073 108.239 3.45894 108.253 3.49023C108.266 3.52151 108.273 3.55523 108.273 3.58929C108.273 3.62336 108.266 3.65707 108.253 3.68836C108.239 3.71965 108.219 3.74786 108.195 3.77127L107.267 4.71612C107.245 4.73908 107.218 4.75733 107.189 4.7698C107.159 4.78226 107.128 4.78869 107.096 4.78869C107.064 4.78869 107.032 4.78226 107.003 4.7698C106.973 4.75733 106.947 4.73908 106.925 4.71612C106.488 4.30655 105.914 4.07448 105.315 4.06522C104.483 4.06522 103.868 4.56059 103.868 5.13217C103.868 6.97989 108.785 5.91372 108.785 9.46917C108.783 11.271 107.455 12.6342 105.108 12.6342C104.456 12.6409 103.81 12.5164 103.207 12.2682C102.605 12.02 102.058 11.6531 101.6 11.1894C101.575 11.1659 101.556 11.1377 101.542 11.1064C101.529 11.0752 101.522 11.0414 101.522 11.0074C101.522 10.9733 101.529 10.9396 101.542 10.9083C101.556 10.877 101.575 10.8488 101.6 10.8254L102.497 9.90466C102.52 9.88059 102.547 9.86138 102.577 9.84825C102.607 9.83512 102.64 9.82834 102.672 9.82834C102.705 9.82834 102.738 9.83512 102.768 9.84825C102.798 9.86138 102.825 9.88059 102.847 9.90466C103.412 10.4645 104.173 10.7825 104.968 10.7912C106.008 10.7912 106.693 10.2219 106.693 9.50883C106.693 7.66034 101.778 8.72728 101.778 5.17105M117.701 2.7121V6.44797H113.539V2.7121C113.54 2.68003 113.534 2.64819 113.522 2.61841C113.51 2.58863 113.493 2.56148 113.47 2.53851C113.448 2.51555 113.421 2.49722 113.392 2.48457C113.362 2.47193 113.33 2.46521 113.298 2.4648H111.72C111.688 2.46521 111.656 2.47193 111.627 2.48457C111.597 2.49722 111.57 2.51555 111.548 2.53851C111.526 2.56148 111.508 2.58863 111.496 2.61841C111.484 2.64819 111.478 2.68003 111.479 2.7121V12.1505C111.479 12.2874 111.588 12.3986 111.72 12.3986H113.298C113.431 12.3986 113.539 12.2874 113.539 12.1505V8.35556H117.698V12.1505C117.698 12.2874 117.807 12.3986 117.939 12.3986H119.518C119.651 12.3986 119.759 12.2874 119.759 12.1505V2.7121C119.76 2.68003 119.754 2.64819 119.742 2.61841C119.73 2.58863 119.712 2.56148 119.69 2.53851C119.667 2.51555 119.641 2.49722 119.611 2.48457C119.582 2.47193 119.55 2.46521 119.518 2.4648H117.939C117.875 2.46643 117.814 2.4933 117.77 2.53959C117.725 2.58588 117.701 2.64786 117.701 2.7121ZM23.8 3.72461C22.7051 1.69492 20.5626 0.431224 18.2328 0.439001H0.604797C0.485751 0.439484 0.369478 0.474987 0.270467 0.541086C0.171457 0.607186 0.0940851 0.700959 0.0479934 0.810721C0.00257541 0.91978 -0.00925343 1.03991 0.0140219 1.15574C0.0372972 1.27156 0.0946171 1.3778 0.17864 1.46084L4.01872 5.27137C4.35778 5.60887 4.81971 5.79784 5.3003 5.79784H17.7273C18.613 5.78851 19.337 6.48996 19.3464 7.36327C19.3557 8.23658 18.6457 8.95203 17.7599 8.96058H9.19248C9.07334 8.96063 8.95686 8.99576 8.85756 9.06159C8.75827 9.12742 8.68055 9.22103 8.63412 9.33075C8.58826 9.43993 8.57613 9.56033 8.59927 9.67647C8.62242 9.79261 8.67978 9.89916 8.76399 9.98242L12.6064 13.7961C12.9476 14.1334 13.4082 14.3223 13.888 14.3218H17.7631C22.8046 14.3218 26.6167 9.00257 23.8 3.72227" fill="white"/>
</g>
<defs>
<clipPath id="clip0_2246_7294">
<rect width="119.759" height="13.9979" fill="white" transform="translate(0 0.438995)"/>
</clipPath>
</defs>
</svg>
