<svg width="113" height="15" viewBox="0 0 113 15" fill="none" xmlns="http://www.w3.org/2000/svg">
<g id="g832">
<path id="path828" fill-rule="evenodd" clip-rule="evenodd" d="M105.627 3.86237H101.011C100.236 3.9082 100.02 4.1003 100.02 5.04081V7.6335H105.627V3.86237ZM108.084 1.78621V13.0917H105.627V9.84198H100.02V13.0917H97.5622V4.22868C97.5622 2.66268 98.1965 1.78621 100.02 1.78621H108.084ZM95.1049 4.22655V10.3449C95.1049 12.2926 94.0108 13.0896 92.6469 13.0896H84.895V1.78409H92.6469C94.7404 1.78409 95.1049 3.11518 95.1049 4.22655ZM92.6178 4.90697C92.6178 4.28755 92.2403 3.86024 91.5793 3.86024H87.3529V10.9242L91.5793 10.9239C92.542 10.875 92.6178 10.2978 92.6178 9.83985V4.90697ZM34.7971 1.78409H37.2548V6.24019H42.7533V1.78409H45.211V13.0893H42.7533V8.47568H37.2548V13.0893H34.7971V1.78409ZM49.4231 1.78409L52.5041 6.4059L55.5481 1.78409H58.5323L53.7317 9.01194V13.0896H51.2737V9.01133L46.4398 1.78409H49.4231ZM72.3279 1.78409H80.2477C81.3763 1.78409 82.4692 1.94251 82.4373 4.22655V13.0896H79.9797V5.03869C79.9797 4.0651 79.8629 3.86024 79.099 3.86024H74.7861V13.0896H72.3279V1.78409ZM113 1.78621V13.0917H110.542V1.78621H113ZM59.7614 13.0896H67.6806C69.2551 13.0896 69.9024 12.6341 69.8705 10.364V1.78409H67.4129V9.85472C67.4129 10.8222 67.2961 10.9397 66.5322 10.9397H62.2193L62.219 1.78409H59.7614V13.0896Z" fill="white"/>
<path id="path830" fill-rule="evenodd" clip-rule="evenodd" d="M17.4499 9.1139C17.6665 10.2338 17.0796 11.164 16.5919 12.0668C16.0502 12.9069 15.1561 13.6289 14.0814 13.5208C11.6699 13.4847 9.31306 13.1145 7.12734 12.455C7.0281 12.428 6.92886 12.3645 6.87454 12.2744C6.82932 12.1479 6.89275 12.0304 6.98288 11.9494C8.97892 10.3327 11.354 9.58339 13.7021 8.79736C14.578 8.54455 15.5084 8.27354 16.4927 8.40009C16.8987 8.45442 17.3051 8.73454 17.4499 9.1139ZM25.6771 4.3276C26.797 5.24868 27.8085 6.50421 27.4652 8.02134C26.9053 10.2611 24.4671 11.4532 22.5254 12.2116C21.4686 12.5639 20.4031 12.9254 19.2471 13.0337C19.1749 13.0246 19.0574 13.0425 19.0392 12.9342L19.0662 12.8079C20.7099 10.9564 21.956 8.87961 23.0492 6.77522C23.5548 5.82683 24.0246 4.85172 24.458 3.89422C24.5211 3.82199 24.5845 3.78588 24.6568 3.75886C25.0628 3.79468 25.3521 4.11091 25.6771 4.3276ZM9.9176 1.9434L9.88149 2.07876C7.5064 4.77889 5.94404 7.91269 4.46303 11.0283C4.17411 11.2993 3.89399 10.9379 3.63208 10.8204C2.31343 9.95365 1.12133 8.55366 1.46457 6.89207C2.0154 4.72486 4.24603 3.56888 6.10671 2.78346C7.20837 2.36798 8.35555 2.03384 9.56556 1.84416C9.69211 1.84386 9.85448 1.82595 9.9176 1.9434ZM21.7035 2.37678C21.8389 2.44901 22.0016 2.47602 22.0829 2.61138C22.1551 2.76494 22.0107 2.86418 21.9293 2.96373C20.0598 4.42654 17.9197 5.23958 15.7339 5.95308C14.6229 6.22409 13.503 6.7118 12.266 6.44078C11.9768 6.36855 11.7152 6.17887 11.5525 5.89875C11.2454 5.0499 11.6608 4.16493 12.022 3.42442C12.5006 2.49423 13.3497 1.40138 14.5236 1.38347C17.0523 1.36526 19.4365 1.74462 21.7035 2.37678ZM24.8282 2.44901C26.7429 3.49665 28.9104 5.33882 28.6846 7.79525C28.4227 10.0711 26.3005 11.6605 24.404 12.618C18.8677 15.2641 11.0921 15.3451 5.37531 13.0334C3.4424 12.2298 1.27489 10.848 0.461849 8.77065C-0.161211 7.06384 0.597204 5.2848 1.87094 4.10181C4.53495 1.68149 7.93067 0.85085 11.4259 0.371947C15.2192 -0.0887465 19.2107 0.317623 22.6064 1.48271C23.3651 1.76283 24.1147 2.06996 24.8282 2.44901Z" fill="white"/>
</g>
</svg>
