<svg width="124" height="32" viewBox="0 0 124 32" fill="none" xmlns="http://www.w3.org/2000/svg">
<g id="Reuters_Logo 1" clip-path="url(#clip0_2246_7310)">
<path id="Vector" d="M31.7518 19.6995C31.1805 19.6995 30.6567 19.9852 30.371 20.4614C30.0853 20.9375 30.0853 21.5565 30.371 22.0326C30.6567 22.5088 31.1805 22.8183 31.7518 22.7945C32.6089 22.7707 33.2755 22.0803 33.2755 21.247C33.2993 20.4137 32.6089 19.7233 31.7518 19.6995Z" fill="white"/>
<path id="Vector_2" d="M29.7759 23.7468C29.0379 23.7468 28.4427 24.342 28.4427 25.0562C28.4427 25.7942 29.0379 26.3894 29.7759 26.3894C30.5139 26.3894 31.1091 25.7942 31.1091 25.0562C31.1091 24.342 30.5139 23.7468 29.7759 23.7468Z" fill="white"/>
<path id="Vector_3" d="M26.8843 29.1965C27.5151 29.1755 28.0094 28.6472 27.9884 28.0164C27.9674 27.3857 27.439 26.8914 26.8083 26.9124C26.1775 26.9334 25.6832 27.4617 25.7042 28.0925C25.7252 28.7232 26.2536 29.2175 26.8843 29.1965Z" fill="white"/>
<path id="Vector_4" d="M23.5387 29.0558C23.015 29.0558 22.6102 29.4606 22.6102 29.9843C22.6102 30.5081 23.015 30.9128 23.5387 30.9128C24.0625 30.9128 24.4672 30.5081 24.4672 29.9843C24.4672 29.4606 24.0625 29.0558 23.5387 29.0558Z" fill="white"/>
<path id="Vector_5" d="M20.3012 30.1748C19.8727 30.1748 19.5156 30.5319 19.5156 30.9604C19.5156 31.3889 19.8727 31.746 20.3012 31.746C20.7297 31.746 21.0869 31.3889 21.0869 30.9604C21.1107 30.5319 20.7535 30.1748 20.3012 30.1748Z" fill="white"/>
<path id="Vector_6" d="M17.2768 30.6271C16.8959 30.6271 16.5864 30.9366 16.5864 31.3175C16.5864 31.6984 16.8959 32.0079 17.2768 32.0079C17.6578 32.0079 17.9673 31.6984 17.9673 31.3175C17.9434 30.9366 17.634 30.6271 17.2768 30.6271Z" fill="white"/>
<path id="Vector_7" d="M14.2296 30.1748C13.801 30.1748 13.4439 30.5319 13.4439 30.9604C13.4439 31.3889 13.801 31.746 14.2296 31.746C14.6581 31.746 15.0152 31.3889 15.0152 30.9604C15.0152 30.5319 14.6581 30.1748 14.2296 30.1748Z" fill="white"/>
<path id="Vector_8" d="M10.992 29.032C10.6587 29.032 10.3492 29.1986 10.1826 29.4843C10.0159 29.77 10.0159 30.1271 10.1826 30.4128C10.3492 30.6985 10.6587 30.8652 10.992 30.8652C11.492 30.8652 11.9205 30.4604 11.9205 29.9367C11.8967 29.4605 11.492 29.0558 10.992 29.032Z" fill="white"/>
<path id="Vector_9" d="M7.68304 26.9131C7.27832 26.9131 6.8974 27.1274 6.68313 27.4845C6.46886 27.8416 6.46886 28.2702 6.68313 28.6273C6.8974 28.9844 7.25451 29.1987 7.68304 29.1987C8.30203 29.1987 8.82579 28.6987 8.82579 28.0559C8.82579 27.4369 8.32584 26.9131 7.68304 26.9131Z" fill="white"/>
<path id="Vector_10" d="M4.75411 23.7468C4.01608 23.7468 3.4209 24.342 3.4209 25.08C3.4209 25.818 4.01608 26.4132 4.75411 26.4132C5.49214 26.4132 6.08733 25.818 6.08733 25.08C6.06352 24.342 5.49214 23.7468 4.75411 23.7468Z" fill="white"/>
<path id="Vector_11" d="M2.77872 19.6995C2.20734 19.6757 1.68358 19.9852 1.39789 20.4614C1.1122 20.9375 1.1122 21.5565 1.39789 22.0326C1.68358 22.5088 2.20734 22.8183 2.77872 22.7945C3.63578 22.7707 4.30239 22.0803 4.30239 21.247C4.30239 20.4137 3.61198 19.7233 2.77872 19.6995Z" fill="white"/>
<path id="Vector_12" d="M2.06418 14.6523C1.06427 14.6523 0.254822 15.4618 0.254822 16.4617C0.254822 17.4616 1.06427 18.2711 2.06418 18.2711C3.06409 18.2711 3.87354 17.4616 3.87354 16.4617C3.84974 15.4618 3.06409 14.6523 2.06418 14.6523Z" fill="white"/>
<path id="Vector_13" d="M2.77872 10.0813C2.20734 10.0813 1.68358 10.367 1.39789 10.8432C1.1122 11.3193 1.1122 11.9383 1.39789 12.4145C1.68358 12.8906 2.20734 13.2001 2.77872 13.1763C3.63578 13.1525 4.30239 12.4621 4.30239 11.6288C4.30239 10.7956 3.61198 10.1051 2.77872 10.0813Z" fill="white"/>
<path id="Vector_14" d="M4.75463 6.48642C4.27848 6.48642 3.82614 6.72449 3.58807 7.15303C3.35 7.55775 3.35 8.08151 3.58807 8.48624C3.82614 8.89097 4.27848 9.15285 4.75463 9.15285C5.46885 9.12904 6.06404 8.55766 6.06404 7.81963C6.04023 7.10541 5.46885 6.51023 4.75463 6.48642Z" fill="white"/>
<path id="Vector_15" d="M7.68264 3.67712C7.06365 3.67712 6.53989 4.17708 6.53989 4.81988C6.53989 5.43887 7.03984 5.96263 7.68264 5.96263C8.30163 5.96263 8.8254 5.46268 8.8254 4.81988C8.8254 4.20089 8.32544 3.67712 7.68264 3.67712Z" fill="white"/>
<path id="Vector_16" d="M10.9921 1.98682C10.4922 1.98682 10.0637 2.39154 10.0637 2.9153C10.0637 3.41526 10.4684 3.84379 10.9921 3.84379C11.4921 3.84379 11.9206 3.43907 11.9206 2.9153C11.8968 2.41535 11.4921 1.98682 10.9921 1.98682Z" fill="white"/>
<path id="Vector_17" d="M14.2298 1.12976C13.7775 1.12976 13.4203 1.48687 13.4203 1.93921C13.4203 2.39155 13.7775 2.74866 14.2298 2.74866C14.6583 2.74866 15.0154 2.39155 15.0154 1.96302C14.9916 1.48687 14.6583 1.12976 14.2298 1.12976Z" fill="white"/>
<path id="Vector_18" d="M17.2533 0.891663C16.8724 0.891663 16.5629 1.20116 16.5629 1.58208C16.5629 1.96299 16.8724 2.27249 17.2533 2.27249C17.6342 2.27249 17.9437 1.96299 17.9437 1.58208C17.9437 1.20116 17.6342 0.891663 17.2533 0.891663Z" fill="white"/>
<path id="Vector_19" d="M20.3012 1.12976C19.8727 1.12976 19.5156 1.48687 19.5156 1.9154C19.5156 2.34394 19.8727 2.70105 20.3012 2.70105C20.7297 2.70105 21.0869 2.34394 21.0869 1.9154C21.1107 1.48687 20.7535 1.12976 20.3012 1.12976Z" fill="white"/>
<path id="Vector_20" d="M23.5386 1.98682C23.2053 1.98682 22.8958 2.15347 22.7291 2.43916C22.5625 2.72485 22.5625 3.08196 22.7291 3.36764C22.8958 3.65333 23.2053 3.81999 23.5386 3.81999C24.0386 3.81999 24.4671 3.41526 24.4671 2.8915C24.4671 2.36773 24.0624 1.98682 23.5386 1.98682Z" fill="white"/>
<path id="Vector_21" d="M26.8476 3.70096C26.2287 3.70096 25.7049 4.20091 25.7049 4.84371C25.7049 5.4627 26.2048 5.98647 26.8476 5.98647C27.4666 5.98647 27.9904 5.48651 27.9904 4.84371C27.9904 4.20091 27.4666 3.70096 26.8476 3.70096Z" fill="white"/>
<path id="Vector_22" d="M29.7759 6.48642C29.0379 6.48642 28.4427 7.0816 28.4427 7.81963C28.4427 8.55766 29.0379 9.15285 29.7759 9.15285C30.5139 9.15285 31.1091 8.55766 31.1091 7.81963C31.1091 7.0816 30.5139 6.48642 29.7759 6.48642Z" fill="white"/>
<path id="Vector_23" d="M31.7518 10.0813C31.1805 10.0813 30.6567 10.367 30.371 10.8432C30.0853 11.3193 30.0853 11.9383 30.371 12.4145C30.6567 12.8906 31.1805 13.2001 31.7518 13.1763C32.6089 13.1525 33.2755 12.4621 33.2755 11.6288C33.2755 10.7717 32.6089 10.0813 31.7518 10.0813Z" fill="white"/>
<path id="Vector_24" d="M24.6095 18.8186C24.3476 18.8186 24.1096 18.9377 23.9905 19.1519C23.8715 19.3662 23.8715 19.6519 23.9905 19.8662C24.1096 20.0804 24.3476 20.2233 24.6095 20.1995C24.9904 20.1757 25.2761 19.8662 25.2761 19.509C25.2999 19.1519 24.9904 18.8424 24.6095 18.8186Z" fill="white"/>
<path id="Vector_25" d="M22.872 21.4136C22.6101 21.4136 22.372 21.5326 22.253 21.7469C22.1339 21.9612 22.1339 22.2469 22.253 22.4611C22.372 22.6754 22.6339 22.8182 22.872 22.7944C23.2529 22.7706 23.5386 22.4611 23.5386 22.104C23.5386 21.7469 23.2529 21.4374 22.872 21.4136Z" fill="white"/>
<path id="Vector_26" d="M20.2771 23.0801C20.0152 23.0801 19.7534 23.223 19.6105 23.4611C19.4677 23.6991 19.4677 23.9848 19.6105 24.2229C19.7534 24.461 19.9914 24.6038 20.2771 24.6038C20.7057 24.6038 21.039 24.2705 21.039 23.842C21.039 23.4134 20.7057 23.0801 20.2771 23.0801Z" fill="white"/>
<path id="Vector_27" d="M17.2297 23.5325C16.6583 23.5325 16.2059 23.9848 16.2059 24.5562C16.2059 25.1276 16.6583 25.5799 17.2297 25.5799C17.801 25.5799 18.2534 25.1276 18.2534 24.5562C18.2296 23.9848 17.7772 23.5325 17.2297 23.5325Z" fill="white"/>
<path id="Vector_28" d="M14.1586 22.9135C13.5158 22.9135 12.992 23.4372 12.992 24.08C12.992 24.7228 13.5158 25.2466 14.1586 25.2466C14.8014 25.2466 15.3252 24.7228 15.3252 24.08C15.3252 23.4372 14.8014 22.9135 14.1586 22.9135Z" fill="white"/>
<path id="Vector_29" d="M11.3971 20.9613C10.6829 20.9613 10.1115 21.5326 10.1115 22.2469C10.1115 22.9611 10.6829 23.5325 11.3971 23.5325C12.1113 23.5325 12.6827 22.9611 12.6827 22.2469C12.6827 21.5326 12.1113 20.9613 11.3971 20.9613Z" fill="white"/>
<path id="Vector_30" d="M9.56373 18.3425C8.96855 18.3425 8.4924 18.8186 8.4924 19.4138C8.4924 20.009 8.96855 20.4851 9.56373 20.4851C10.1589 20.4851 10.6351 20.009 10.6351 19.4138C10.6589 18.8424 10.1589 18.3425 9.56373 18.3425Z" fill="white"/>
<path id="Vector_31" d="M9.13505 15.4856C8.68271 15.4856 8.30179 15.8665 8.30179 16.3189C8.30179 16.7712 8.68271 17.1521 9.13505 17.1521C9.58739 17.1521 9.96831 16.7712 9.96831 16.3189C9.96831 15.8427 9.61119 15.4856 9.13505 15.4856Z" fill="white"/>
<path id="Vector_32" d="M9.87312 12.6764C9.49221 12.6764 9.18271 12.9859 9.18271 13.3668C9.18271 13.7477 9.49221 14.0572 9.87312 14.0572C10.254 14.0572 10.5635 13.7477 10.5635 13.3668C10.5873 12.9859 10.254 12.6764 9.87312 12.6764Z" fill="white"/>
<path id="Vector_33" d="M11.6347 10.1051C11.3728 10.1051 11.1347 10.2241 11.0157 10.4384C10.8966 10.6527 10.8966 10.9384 11.0157 11.1526C11.1347 11.3669 11.3966 11.5097 11.6347 11.4859C12.0156 11.4859 12.3251 11.1764 12.3251 10.7955C12.3013 10.4146 11.9918 10.1051 11.6347 10.1051Z" fill="white"/>
<path id="Vector_34" d="M14.2057 8.29575C13.7772 8.29575 13.4439 8.62905 13.4439 9.05758C13.4439 9.48611 13.7772 9.81942 14.2057 9.81942C14.6343 9.81942 14.9676 9.48611 14.9676 9.05758C14.9676 8.65286 14.6343 8.29575 14.2057 8.29575Z" fill="white"/>
<path id="Vector_35" d="M18.2958 8.37015C18.3175 7.80516 17.8771 7.32956 17.3121 7.30786C16.7471 7.28616 16.2715 7.72659 16.2498 8.29157C16.2281 8.85656 16.6685 9.33216 17.2335 9.35386C17.7985 9.37556 18.2741 8.93514 18.2958 8.37015Z" fill="white"/>
<path id="Vector_36" d="M20.3244 7.65298C19.6816 7.65298 19.1579 8.17675 19.1579 8.81955C19.1579 9.46235 19.6816 9.98611 20.3244 9.98611C20.9672 9.98611 21.491 9.46235 21.491 8.81955C21.491 8.17675 20.9672 7.65298 20.3244 7.65298Z" fill="white"/>
<path id="Vector_37" d="M23.0863 9.36713C22.3721 9.36713 21.8007 9.9385 21.8007 10.6527C21.8007 11.3669 22.3721 11.9383 23.0863 11.9383C23.8005 11.9383 24.3719 11.3669 24.3719 10.6527C24.3719 9.9385 23.8005 9.36713 23.0863 9.36713Z" fill="white"/>
<path id="Vector_38" d="M24.9194 12.3907C24.3242 12.3907 23.8481 12.8668 23.8481 13.462C23.8481 14.0572 24.3242 14.5333 24.9194 14.5333C25.5146 14.5333 25.9907 14.0572 25.9907 13.462C25.9907 12.8668 25.5146 12.3907 24.9194 12.3907Z" fill="white"/>
<path id="Vector_39" d="M22.1101 18.4139C22.4651 18.4139 22.7529 18.1261 22.7529 17.7711C22.7529 17.4161 22.4651 17.1283 22.1101 17.1283C21.7551 17.1283 21.4673 17.4161 21.4673 17.7711C21.4673 18.1261 21.7551 18.4139 22.1101 18.4139Z" fill="white"/>
<path id="Vector_40" d="M20.8483 19.1281C20.3246 19.1281 19.896 19.5567 19.896 20.0804C19.896 20.6042 20.3246 21.0327 20.8483 21.0327C21.3721 21.0327 21.8006 20.6042 21.8006 20.0804C21.8244 19.5567 21.3959 19.1281 20.8483 19.1281Z" fill="white"/>
<path id="Vector_41" d="M18.3959 20.4137C17.8483 20.4137 17.396 20.8661 17.396 21.4136C17.396 21.9612 17.8483 22.4135 18.3959 22.4135C18.9434 22.4135 19.3958 21.9612 19.3958 21.4136C19.3958 20.8661 18.9434 20.4137 18.3959 20.4137Z" fill="white"/>
<path id="Vector_42" d="M15.4919 20.3423C15.1824 20.3423 14.8729 20.5089 14.7301 20.7946C14.5634 21.0803 14.5634 21.4136 14.7301 21.6755C14.8967 21.9612 15.1824 22.1278 15.4919 22.1278C15.9919 22.1278 16.3728 21.7231 16.3728 21.247C16.3966 20.747 15.9919 20.3423 15.4919 20.3423Z" fill="white"/>
<path id="Vector_43" d="M13.3485 18.89C12.9914 18.89 12.7057 19.1757 12.7057 19.5328C12.7057 19.8899 12.9914 20.1756 13.3485 20.1756C13.7056 20.1756 13.9913 19.8899 13.9913 19.5328C14.0151 19.1995 13.7056 18.89 13.3485 18.89Z" fill="white"/>
<path id="Vector_44" d="M12.4916 17.0093C12.2297 17.0093 12.0154 17.2235 12.0154 17.4854C12.0154 17.7473 12.2297 17.9616 12.4916 17.9616C12.7534 17.9616 12.9677 17.7473 12.9677 17.4854C12.9677 17.2235 12.7534 17.0093 12.4916 17.0093Z" fill="white"/>
<path id="Vector_45" d="M12.444 14.5571C12.0869 14.5571 11.8012 14.8428 11.8012 15.1999C11.8012 15.557 12.0869 15.8427 12.444 15.8427C12.8011 15.8427 13.0868 15.557 13.0868 15.1999C13.0868 14.8428 12.8011 14.5571 12.444 14.5571Z" fill="white"/>
<path id="Vector_46" d="M13.7059 11.9145C13.1821 11.9145 12.7536 12.343 12.7536 12.8668C12.7536 13.3905 13.1821 13.8191 13.7059 13.8191C14.2296 13.8191 14.6582 13.3905 14.6582 12.8668C14.6582 12.343 14.2296 11.9145 13.7059 11.9145Z" fill="white"/>
<path id="Vector_47" d="M16.1578 10.5337C15.6103 10.5337 15.1579 10.986 15.1579 11.5336C15.1579 12.0811 15.6103 12.5335 16.1578 12.5335C16.7054 12.5335 17.1577 12.0811 17.1577 11.5336C17.1577 10.986 16.7054 10.5337 16.1578 10.5337Z" fill="white"/>
<path id="Vector_48" d="M19.063 10.8432C18.7297 10.8432 18.444 11.0098 18.2774 11.2717C18.1107 11.5574 18.1107 11.8907 18.2774 12.1764C18.444 12.4621 18.7535 12.6287 19.063 12.6049C19.5392 12.5811 19.9201 12.2002 19.9201 11.724C19.9201 11.2479 19.5392 10.867 19.063 10.8432Z" fill="white"/>
<path id="Vector_49" d="M21.1813 12.7477C20.8242 12.7477 20.5385 13.0334 20.5385 13.3905C20.5385 13.7477 20.8242 14.0333 21.1813 14.0333C21.5384 14.0333 21.8241 13.7477 21.8241 13.3905C21.8479 13.0334 21.5622 12.7477 21.1813 12.7477Z" fill="white"/>
<path id="Vector_50" d="M22.0862 15.0095C21.8243 15.0095 21.6101 15.2237 21.6101 15.4856C21.6101 15.7475 21.8243 15.9618 22.0862 15.9618C22.3481 15.9618 22.5624 15.7475 22.5624 15.4856C22.5624 15.2237 22.3481 15.0095 22.0862 15.0095Z" fill="white"/>
<path id="Vector_51" d="M25.3482 15.7475C24.8958 15.7475 24.5149 16.1284 24.5149 16.5808C24.5149 17.0331 24.8958 17.414 25.3482 17.414C25.8005 17.414 26.1814 17.0331 26.1814 16.5808C26.1814 16.1284 25.8005 15.7475 25.3482 15.7475Z" fill="white"/>
<path id="Vector_52" d="M28.8003 16.7712C28.3004 16.7712 27.9194 17.1759 27.9194 17.6521C27.9194 18.152 28.3242 18.533 28.8003 18.533C29.3003 18.533 29.6812 18.1282 29.6812 17.6521C29.6812 17.1759 29.3003 16.7712 28.8003 16.7712Z" fill="white"/>
<path id="Vector_53" d="M27.9188 19.89C27.4665 19.89 27.0856 20.2709 27.0856 20.7233C27.0856 21.1756 27.4665 21.5565 27.9188 21.5565C28.3712 21.5565 28.7521 21.1756 28.7521 20.7233C28.7521 20.2709 28.395 19.89 27.9188 19.89Z" fill="white"/>
<path id="Vector_54" d="M26.4191 22.5088C26.0382 22.5088 25.7049 22.8183 25.7049 23.223C25.7049 23.604 26.0144 23.9373 26.4191 23.9373C26.8 23.9373 27.1095 23.604 27.1095 23.223C27.1095 22.8421 26.8 22.5326 26.4191 22.5088Z" fill="white"/>
<path id="Vector_55" d="M24.6095 24.461C24.3952 24.461 24.181 24.58 24.0619 24.7705C23.9429 24.9609 23.9429 25.199 24.0619 25.3895C24.181 25.5799 24.3714 25.699 24.6095 25.699C24.9428 25.699 25.2285 25.4371 25.2285 25.08C25.2285 24.7467 24.9428 24.461 24.6095 24.461Z" fill="white"/>
<path id="Vector_56" d="M22.7049 25.8894C22.4192 25.8894 22.1812 26.1275 22.1812 26.4132C22.1812 26.6989 22.4192 26.9369 22.7049 26.9369C22.9906 26.9369 23.2287 26.6989 23.2287 26.4132C23.2287 26.1275 22.9906 25.8894 22.7049 25.8894Z" fill="white"/>
<path id="Vector_57" d="M20.5385 26.6988C20.2052 26.6988 19.9196 26.9607 19.9196 27.3178C19.9196 27.6511 20.1814 27.9368 20.5385 27.9368C20.8719 27.9368 21.1575 27.6749 21.1575 27.3178C21.1337 26.9607 20.8719 26.6988 20.5385 26.6988Z" fill="white"/>
<path id="Vector_58" d="M17.991 27.1036C17.61 27.1036 17.2767 27.4131 17.2767 27.8178C17.2767 28.1987 17.5862 28.5321 17.991 28.5321C18.3719 28.5321 18.7052 28.2226 18.7052 27.8178C18.6814 27.4131 18.3719 27.1036 17.991 27.1036Z" fill="white"/>
<path id="Vector_59" d="M15.0867 26.8179C14.5868 26.8179 14.1821 27.2226 14.1821 27.7226C14.1821 28.2225 14.5868 28.6272 15.0867 28.6272C15.5867 28.6272 15.9914 28.2225 15.9914 27.7226C15.9914 27.2226 15.5867 26.8179 15.0867 26.8179Z" fill="white"/>
<path id="Vector_60" d="M12.0159 25.7228C11.4208 25.7228 10.9446 26.1989 10.9446 26.7941C10.9446 27.3893 11.4208 27.8654 12.0159 27.8654C12.6111 27.8654 13.0873 27.3893 13.0873 26.7941C13.1111 26.1989 12.6111 25.7228 12.0159 25.7228Z" fill="white"/>
<path id="Vector_61" d="M9.32588 23.6754C8.87354 23.6754 8.44501 23.9134 8.20694 24.2943C7.96886 24.6991 7.96886 25.1752 8.20694 25.5799C8.44501 25.9847 8.87354 26.2227 9.32588 26.1989C10.0163 26.1751 10.5639 25.6276 10.5639 24.9371C10.5639 24.2705 10.0163 23.6992 9.32588 23.6754Z" fill="white"/>
<path id="Vector_62" d="M7.06409 20.628C6.30225 20.628 5.68326 21.247 5.68326 22.0088C5.68326 22.7707 6.30225 23.3897 7.06409 23.3897C7.82592 23.3897 8.44492 22.7707 8.44492 22.0088C8.44492 21.2232 7.82592 20.628 7.06409 20.628Z" fill="white"/>
<path id="Vector_63" d="M6.8802 18.599C6.92308 17.9956 6.46875 17.4718 5.86543 17.4289C5.26212 17.3861 4.73828 17.8404 4.6954 18.4437C4.65252 19.047 5.10685 19.5709 5.71017 19.6137C6.31349 19.6566 6.83733 19.2023 6.8802 18.599Z" fill="white"/>
<path id="Vector_64" d="M6.5995 15.2773C6.62641 14.7915 6.25443 14.3759 5.76866 14.349C5.2829 14.3221 4.8673 14.6941 4.8404 15.1798C4.8135 15.6656 5.18548 16.0812 5.67124 16.1081C6.157 16.135 6.5726 15.763 6.5995 15.2773Z" fill="white"/>
<path id="Vector_65" d="M6.61146 11.3193C6.15912 11.3193 5.7782 11.7002 5.7782 12.1526C5.7782 12.6049 6.15912 12.9858 6.61146 12.9858C7.0638 12.9858 7.44472 12.6049 7.44472 12.1526C7.44472 11.7002 7.0638 11.3193 6.61146 11.3193Z" fill="white"/>
<path id="Vector_66" d="M8.11089 8.96234C7.84901 8.96234 7.61093 9.08138 7.4919 9.31945C7.37286 9.53372 7.37286 9.81941 7.4919 10.0337C7.61093 10.2479 7.87281 10.3908 8.11089 10.3908C8.49181 10.3908 8.8013 10.0575 8.8013 9.67656C8.8013 9.27184 8.49181 8.96234 8.11089 8.96234Z" fill="white"/>
<path id="Vector_67" d="M9.92093 7.20065C9.58763 7.20065 9.30194 7.46253 9.30194 7.81965C9.30194 8.15295 9.56382 8.43864 9.92093 8.43864C10.278 8.43864 10.5399 8.17676 10.5399 7.81965C10.5399 7.48634 10.2542 7.20065 9.92093 7.20065Z" fill="white"/>
<path id="Vector_68" d="M11.8253 5.96268C11.5396 5.96268 11.3015 6.20075 11.3015 6.48644C11.3015 6.77213 11.5396 7.0102 11.8253 7.0102C12.111 7.0102 12.3491 6.77213 12.3491 6.48644C12.3491 6.17694 12.111 5.96268 11.8253 5.96268Z" fill="white"/>
<path id="Vector_69" d="M13.9915 4.98654C13.6582 4.98654 13.3725 5.24842 13.3725 5.60553C13.3725 5.93884 13.6344 6.22453 13.9915 6.22453C14.3248 6.22453 14.6105 5.96264 14.6105 5.60553C14.6105 5.24842 14.3248 4.98654 13.9915 4.98654Z" fill="white"/>
<path id="Vector_70" d="M16.539 4.36755C16.2772 4.36755 16.0391 4.48659 15.9201 4.72466C15.801 4.93893 15.801 5.22462 15.9201 5.43889C16.0391 5.65315 16.301 5.796 16.539 5.796C16.92 5.796 17.2295 5.46269 17.2295 5.08178C17.2295 4.70086 16.92 4.39136 16.539 4.36755Z" fill="white"/>
<path id="Vector_71" d="M19.4437 4.2485C19.1104 4.2485 18.8009 4.41516 18.6343 4.70084C18.4676 4.98653 18.4676 5.34364 18.6343 5.62933C18.8009 5.91502 19.1104 6.08167 19.4437 6.08167C19.9437 6.08167 20.3484 5.65314 20.3484 5.15319C20.3484 4.65323 19.9437 4.2485 19.4437 4.2485Z" fill="white"/>
<path id="Vector_72" d="M22.4197 4.93893C21.8245 4.93893 21.3245 5.41508 21.3245 6.03407C21.3245 6.62926 21.8007 7.12921 22.4197 7.12921C23.0148 7.12921 23.5148 6.65307 23.5148 6.03407C23.5148 5.43889 23.0148 4.93893 22.4197 4.93893Z" fill="white"/>
<path id="Vector_73" d="M25.2283 6.65305C24.5141 6.65305 23.9666 7.22442 23.9666 7.91484C23.9666 8.60525 24.5379 9.17663 25.2283 9.17663C25.9426 9.17663 26.4901 8.60525 26.4901 7.91484C26.4901 7.22442 25.9188 6.65305 25.2283 6.65305Z" fill="white"/>
<path id="Vector_74" d="M27.4664 9.50995C26.9664 9.50995 26.5141 9.77183 26.2522 10.2004C25.9903 10.6289 25.9903 11.1527 26.2522 11.5812C26.5141 12.0097 26.9664 12.2716 27.4664 12.2716C28.2282 12.2478 28.8234 11.6526 28.8234 10.8908C28.7996 10.1527 28.2044 9.53376 27.4664 9.50995Z" fill="white"/>
<path id="Vector_75" d="M28.7283 13.2953C28.3473 13.2953 27.9664 13.4857 27.776 13.8191C27.5855 14.1524 27.5855 14.5809 27.776 14.9142C27.9664 15.2475 28.3473 15.4618 28.7283 15.438C29.3234 15.4141 29.7758 14.938 29.7758 14.3666C29.7758 13.7952 29.3234 13.3191 28.7283 13.2953Z" fill="white"/>
<path id="Vector_76" d="M34.2752 16.4379C34.2752 17.4378 33.4657 18.2472 32.4658 18.2472C31.4659 18.2472 30.6564 17.4378 30.6564 16.4379C30.6564 15.438 31.4659 14.6285 32.4658 14.6285C33.4657 14.6523 34.2752 15.4618 34.2752 16.4379Z" fill="white"/>
<path id="Vector_77" d="M123.363 19.2233C123.363 17.5092 122.387 16.6045 120.863 15.9855C119.673 15.5094 118.625 15.1047 117.816 14.7714C117.03 14.4619 116.34 13.9143 116.34 13.3191C116.34 12.5097 117.34 12.0335 118.673 12.0335C120.244 12.0335 121.482 12.2478 122.649 12.3668H122.696C122.887 12.3668 123.006 12.224 123.006 12.0335V10.7003C123.006 10.5336 122.863 10.3908 122.673 10.367C122.054 10.2241 120.482 9.89084 118.768 9.89084C115.435 9.89084 113.84 11.3193 113.84 13.3191C113.84 14.5809 114.388 15.8189 115.959 16.4617C117.53 17.1045 120.744 17.8663 120.744 19.1995C120.744 20.2471 120.268 20.8184 118.649 20.8184C116.983 20.8184 115.292 20.5804 114.578 20.4851H114.53C114.34 20.4851 114.197 20.628 114.197 20.8184V22.104C114.197 22.2945 114.364 22.4373 114.53 22.4611C115.388 22.6516 117.006 22.9373 118.602 22.9373C122.244 22.9849 123.363 21.0327 123.363 19.2233Z" fill="white"/>
<path id="Vector_78" d="M88.1281 12.1288H84.5332V22.4612C84.5332 22.6516 84.3666 22.8183 84.1761 22.8183H82.3906C82.2001 22.8183 82.0334 22.6516 82.0334 22.4612V12.1288H78.4385C78.2481 12.1288 78.0814 12.0097 78.0814 11.7955V10.367C78.0814 10.1766 78.2481 10.0337 78.4385 10.0337H88.1281C88.3186 10.0337 88.4853 10.1766 88.4853 10.367V11.7955C88.4853 12.0097 88.3186 12.1288 88.1281 12.1288Z" fill="white"/>
<path id="Vector_79" d="M76.51 17.8901V10.3908C76.51 10.2003 76.3433 10.0575 76.1528 10.0575H74.3673C74.1768 10.0575 74.0102 10.2003 74.0102 10.3908V17.8663C74.0102 19.9138 73.0579 20.8899 71.1295 20.8899C69.2011 20.8899 68.2488 19.9138 68.2488 17.8663V10.3908C68.2488 10.2003 68.0821 10.0575 67.8917 10.0575H66.1061C65.9157 10.0575 65.749 10.2003 65.749 10.3908V17.8663C65.749 21.6993 68.2488 22.9611 71.1295 22.9611C74.0102 22.9611 76.51 21.7231 76.51 17.8901Z" fill="white"/>
<path id="Vector_80" d="M92.627 17.2712H98.3884C98.5789 17.2712 98.7455 17.1045 98.7455 16.914V15.6046C98.7455 15.4142 98.5789 15.2475 98.3884 15.2475H92.627V13.6048C92.627 12.105 92.6746 12.0573 94.0555 12.0573H98.6027C98.7931 12.0573 98.9598 11.8907 98.9598 11.7002V10.5575C98.9598 10.2956 98.8646 10.2242 98.6027 10.1766C98.0313 10.0813 96.8647 9.91468 94.7221 9.91468C91.7462 9.91468 90.1511 9.89087 90.1511 13.6048V19.2948C90.1511 23.0087 91.7462 22.9849 94.7221 22.9849C96.8647 22.9849 98.0313 22.8183 98.6027 22.723C98.8646 22.6992 98.9598 22.604 98.9598 22.3421V21.1994C98.9598 21.0089 98.7931 20.8423 98.6027 20.8423H94.0555C92.6985 20.8423 92.627 20.7947 92.627 19.2948V17.2712Z" fill="white"/>
<path id="Vector_81" d="M57.0833 17.2712H62.8447C63.0352 17.2712 63.2018 17.1045 63.2018 16.914V15.6046C63.2018 15.4142 63.0352 15.2475 62.8447 15.2475H57.0833V13.6048C57.0833 12.105 57.1309 12.0573 58.5118 12.0573H63.059C63.2494 12.0573 63.4161 11.8907 63.4161 11.7002V10.5575C63.4161 10.2956 63.3209 10.2242 63.059 10.1766C62.4876 10.0813 61.321 9.91468 59.1784 9.91468C56.2025 9.91468 54.6074 9.89087 54.6074 13.6048V19.2948C54.6074 23.0087 56.2025 22.9849 59.1784 22.9849C61.321 22.9849 62.4876 22.8183 63.059 22.723C63.3209 22.6992 63.4161 22.604 63.4161 22.3421V21.1994C63.4161 21.0089 63.2494 20.8423 63.059 20.8423H58.5118C57.1547 20.8423 57.0833 20.7947 57.0833 19.2948V17.2712Z" fill="white"/>
<path id="Vector_82" d="M112.34 22.4612L109.531 17.6521C111.007 17.0807 111.959 16.0332 111.959 14.1286V13.9857C111.959 10.9146 109.412 9.91467 106.626 9.91467C105.317 9.91467 103.293 10.0099 102.365 10.1527C102.007 10.2004 101.793 10.3432 101.793 10.7003V22.485C101.793 22.6754 101.96 22.8421 102.15 22.8421H103.96C104.15 22.8421 104.293 22.6754 104.293 22.485V18.033C104.698 18.0568 106.15 18.1044 106.626 18.1044H107.031L109.626 22.4612C109.721 22.6278 109.792 22.8183 109.983 22.8183H112.173C112.316 22.8183 112.387 22.723 112.387 22.604C112.387 22.5564 112.364 22.5088 112.34 22.4612ZM109.459 14.1286C109.459 15.6999 108.459 16.057 106.602 16.057C106.293 16.057 104.555 16.0094 104.269 16.0094V12.1288C104.579 12.0811 106.221 12.0573 106.602 12.0573C108.412 12.0573 109.459 12.6287 109.459 13.9857V14.1286Z" fill="white"/>
<path id="Vector_83" d="M52.6548 22.4612L49.8218 17.6521C51.2978 17.0807 52.2501 16.0332 52.2501 14.1286V13.9857C52.2501 10.9146 49.7027 9.91467 46.9173 9.91467C45.6078 9.91467 43.5842 10.0099 42.6557 10.1527C42.2986 10.2004 42.0844 10.3432 42.0844 10.7003V22.485C42.0844 22.6754 42.251 22.8421 42.4415 22.8421H44.2508C44.4413 22.8421 44.5841 22.6754 44.5841 22.485V18.033C44.9889 18.0568 46.4411 18.1044 46.9173 18.1044H47.322L49.917 22.4612C50.0122 22.6278 50.0836 22.8183 50.2741 22.8183H52.4644C52.6072 22.8183 52.6786 22.723 52.6786 22.604C52.6786 22.5564 52.6786 22.5088 52.6548 22.4612ZM49.7741 14.1286C49.7741 15.6999 48.7742 16.057 46.9411 16.057C46.6316 16.057 44.8936 16.0094 44.6079 16.0094V12.1288C44.9174 12.0811 46.5601 12.0573 46.9411 12.0573C48.7504 12.0573 49.7741 12.6287 49.7741 13.9857V14.1286Z" fill="white"/>
</g>
<defs>
<clipPath id="clip0_2246_7310">
<rect width="123.108" height="31.0924" fill="white" transform="translate(0.255219 0.891663)"/>
</clipPath>
</defs>
</svg>
