<svg width="62" height="43" viewBox="0 0 62 43" fill="none" xmlns="http://www.w3.org/2000/svg">
<g id="Salesforcelogo">
<g id="Mask group">
<path id="Vector" fill-rule="evenodd" clip-rule="evenodd" d="M25.9242 4.66906C27.9 2.61223 30.65 1.33852 33.6879 1.33852C37.7386 1.33852 41.2492 3.58889 43.1395 6.94193C44.8174 6.19183 46.6349 5.80457 48.4729 5.8055C55.764 5.8055 61.6825 11.769 61.6825 19.1277C61.6825 26.4864 55.764 32.4498 48.4729 32.4498C47.5817 32.4498 46.7131 32.3603 45.8624 32.191C44.2084 35.139 41.0466 37.1419 37.4461 37.1419C35.9801 37.1448 34.533 36.8122 33.2154 36.1697C31.5388 40.1078 27.6345 42.8758 23.0887 42.8758C18.3404 42.8758 14.3123 39.8828 12.7595 35.6746C12.0684 35.8205 11.364 35.8938 10.6577 35.8933C5.00927 35.8933 0.441025 31.2576 0.441025 25.5642C0.441025 21.7385 2.49786 18.408 5.54936 16.6077C4.90198 15.1164 4.56875 13.5077 4.57045 11.8819C4.57045 5.31087 9.90382 0 16.4749 0C20.323 0 23.7661 1.83405 25.9264 4.68076" fill="white"/>
</g>
<path id="Vector_2" fill-rule="evenodd" clip-rule="evenodd" d="M9.36179 22.2219C9.32331 22.3223 9.37551 22.3432 9.38789 22.361C9.50289 22.4442 9.61968 22.5046 9.7367 22.5723C10.3623 22.9031 10.9519 22.9999 11.5685 22.9999C12.8242 22.9999 13.6051 22.3315 13.6051 21.2558V21.2347C13.6051 20.24 12.7229 19.8777 11.8993 19.6189L11.7915 19.584C11.1682 19.3819 10.6303 19.206 10.6303 18.7964V18.7755C10.6303 18.4244 10.9454 18.1656 11.4315 18.1656C11.9715 18.1656 12.6151 18.3454 13.027 18.5729C13.027 18.5729 13.1489 18.6517 13.1933 18.534C13.2173 18.4703 13.4273 17.9084 13.4498 17.8454C13.4737 17.7795 13.4318 17.7297 13.3888 17.7041C12.9162 17.416 12.2636 17.2202 11.5885 17.2202L11.4632 17.2207C10.3132 17.2207 9.50986 17.9161 9.50986 18.9107V18.9321C9.50986 19.9808 10.3965 20.3228 11.2246 20.5591L11.3579 20.6005C11.961 20.786 12.483 20.9471 12.483 21.3701V21.3913C12.483 21.7806 12.1432 22.0709 11.5987 22.0709C11.3869 22.0709 10.712 22.0673 9.98064 21.6051C9.8922 21.5536 9.84179 21.5164 9.7736 21.4748C9.7376 21.453 9.64758 21.4136 9.60843 21.5315L9.36089 22.2201M27.7464 22.2201C27.7079 22.3205 27.7601 22.3414 27.7729 22.3592C27.8875 22.4424 28.0047 22.5028 28.1217 22.5705C28.7473 22.9013 29.3369 22.9981 29.9535 22.9981C31.2093 22.9981 31.9901 22.3297 31.9901 21.254V21.2329C31.9901 20.2382 31.1102 19.8759 30.2843 19.6171L30.1766 19.5822C29.5532 19.3801 29.0154 19.2042 29.0154 18.7946V18.7737C29.0154 18.4226 29.3304 18.1638 29.8165 18.1638C30.3566 18.1638 30.9979 18.3436 31.412 18.5711C31.412 18.5711 31.534 18.6499 31.5785 18.5322C31.6024 18.4685 31.8126 17.9066 31.8328 17.8436C31.8569 17.7777 31.8148 17.7279 31.7721 17.7023C31.2995 17.4142 30.6469 17.2184 29.9718 17.2184L29.8462 17.2189C28.6963 17.2189 27.8929 17.9143 27.8929 18.9089V18.9303C27.8929 19.979 28.7795 20.321 29.6077 20.5573L29.7407 20.5987C30.346 20.7842 30.8658 20.9453 30.8658 21.3683V21.3895C30.8658 21.7788 30.526 22.0691 29.9814 22.0691C29.7692 22.0691 29.0926 22.0655 28.3634 21.6033C28.275 21.5518 28.2232 21.5162 28.1562 21.473C28.1334 21.4586 28.0275 21.4172 27.9912 21.5297L27.7437 22.2183M40.3007 20.112C40.3007 20.7196 40.1873 21.1989 39.9654 21.5387C39.744 21.874 39.4096 22.0383 38.9438 22.0383C38.4779 22.0383 38.1449 21.8754 37.9266 21.5409C37.7067 21.2034 37.5958 20.7218 37.5958 20.1142C37.5958 19.5066 37.7074 19.0295 37.9266 18.6942C38.1444 18.3612 38.4757 18.2014 38.9438 18.2014C39.4118 18.2014 39.7449 18.3628 39.9654 18.6942C40.1887 19.0295 40.3007 19.5066 40.3007 20.1142M41.3494 18.9868C41.2461 18.638 41.0861 18.3319 40.8723 18.0754C40.6583 17.8188 40.3885 17.6118 40.0667 17.4633C39.7471 17.3136 39.3691 17.2382 38.9415 17.2382C38.5139 17.2382 38.1381 17.3141 37.8163 17.4633C37.4968 17.6127 37.2245 17.8188 37.0107 18.0754C36.7974 18.3319 36.6371 18.638 36.5336 18.9868C36.4312 19.3333 36.3792 19.7114 36.3792 20.1142C36.3792 20.517 36.4312 20.8951 36.5336 21.2417C36.6365 21.5905 36.7969 21.8965 37.0107 22.153C37.2247 22.4096 37.4968 22.6144 37.8163 22.7606C38.1381 22.9065 38.5162 22.9807 38.9415 22.9807C39.3668 22.9807 39.7449 22.9065 40.0644 22.7606C40.384 22.6148 40.6563 22.4096 40.8701 22.153C41.0836 21.8965 41.2436 21.5905 41.3472 21.2417C41.4493 20.8951 41.5013 20.517 41.5013 20.1142C41.5013 19.7137 41.4493 19.3333 41.3472 18.9868M49.9661 21.8673C49.9316 21.7653 49.8322 21.8038 49.8322 21.8038C49.6798 21.8621 49.5171 21.9161 49.3438 21.9431C49.1692 21.9705 48.9748 21.9843 48.77 21.9843C48.2637 21.9843 47.8586 21.8333 47.5705 21.5342C47.2802 21.2349 47.1182 20.7533 47.1205 20.1007C47.122 19.5066 47.2656 19.061 47.5233 18.719C47.7776 18.3814 48.1691 18.2059 48.6867 18.2059C49.1188 18.2059 49.4496 18.2561 49.7962 18.3646C49.7962 18.3646 49.8783 18.4003 49.9177 18.2921C50.0097 18.0378 50.0777 17.8555 50.1765 17.5765C50.2044 17.4966 50.136 17.4628 50.111 17.4532C49.9751 17.4 49.6542 17.313 49.4111 17.2763C49.1838 17.2416 48.9205 17.2236 48.6235 17.2236C48.1824 17.2236 47.7909 17.299 47.4555 17.4484C47.1202 17.5976 46.8367 17.804 46.6117 18.0605C46.3866 18.3171 46.2156 18.6231 46.1008 18.9719C45.9872 19.3185 45.9298 19.6988 45.9298 20.1016C45.9298 20.9703 46.1638 21.6746 46.6274 22.19C47.091 22.7075 47.7886 22.9686 48.6978 22.9686C49.2356 22.9686 49.7869 22.8599 50.183 22.703C50.183 22.703 50.2586 22.6666 50.2258 22.5784L49.967 21.8673M51.801 19.5269C51.8512 19.1893 51.9437 18.908 52.0891 18.6897C52.3067 18.3567 52.6381 18.1744 53.104 18.1744C53.5698 18.1744 53.8781 18.3576 54.0986 18.6897C54.2449 18.9091 54.3088 19.2006 54.3327 19.5269L51.7898 19.5264L51.801 19.5269ZM55.3341 18.7843C55.2447 18.4489 55.0235 18.1091 54.8795 17.9539C54.65 17.7086 54.4272 17.5353 54.2044 17.4408C53.8828 17.304 53.5367 17.2338 53.1872 17.2344C52.7439 17.2344 52.3411 17.3094 52.0148 17.4617C51.6885 17.6152 51.4139 17.824 51.1979 18.0851C50.9821 18.3461 50.8198 18.6544 50.7163 19.0077C50.6128 19.3565 50.5606 19.7391 50.5606 20.1396C50.5606 20.5492 50.6148 20.9295 50.7215 21.2738C50.8293 21.6204 51.0028 21.9242 51.2368 22.1762C51.4709 22.4305 51.7702 22.6286 52.1302 22.7681C52.488 22.9065 52.9224 22.9783 53.4197 22.9767C54.4459 22.9733 54.986 22.7449 55.2065 22.6211C55.2459 22.5991 55.283 22.561 55.2366 22.4514L55.0049 21.8011C54.9693 21.7041 54.8712 21.7392 54.8712 21.7392C54.6169 21.8342 54.2568 22.0047 53.4129 22.0025C52.8616 22.0016 52.4543 21.8389 52.1978 21.5839C51.9367 21.3229 51.8062 20.9426 51.7859 20.4025L55.3415 20.4052C55.3415 20.4052 55.4351 20.4043 55.4448 20.3129C55.4486 20.2751 55.5665 19.5838 55.3388 18.7849L55.3341 18.7843ZM23.3789 19.5269C23.4291 19.1893 23.5218 18.908 23.6669 18.6897C23.8848 18.3567 24.216 18.1744 24.6818 18.1744C25.1477 18.1744 25.456 18.3576 25.6765 18.6897C25.8225 18.9091 25.8865 19.2006 25.9105 19.5269L23.3676 19.5264L23.3789 19.5269ZM26.9119 18.7843C26.8228 18.4489 26.6014 18.1091 26.4574 17.9539C26.2278 17.7086 26.0051 17.5353 25.7823 17.4408C25.4606 17.304 25.1146 17.2338 24.7651 17.2344C24.3218 17.2344 23.919 17.3094 23.5927 17.4617C23.2664 17.6152 22.9918 17.824 22.7758 18.0851C22.5604 18.3461 22.3977 18.6544 22.2942 19.0077C22.1909 19.3565 22.1389 19.7391 22.1389 20.1396C22.1389 20.5492 22.1927 20.9295 22.3 21.2738C22.4076 21.6204 22.5813 21.9242 22.8131 22.1762C23.0472 22.4305 23.3465 22.6286 23.7065 22.7681C24.0643 22.9065 24.4964 22.9783 24.996 22.9767C26.0222 22.9733 26.5622 22.7449 26.7828 22.6211C26.8219 22.5991 26.8593 22.561 26.8127 22.4514L26.5809 21.8011C26.5451 21.7041 26.447 21.7392 26.447 21.7392C26.1927 21.8342 25.8327 22.0047 24.9888 22.0025C24.4397 22.0016 24.0301 21.8389 23.7736 21.5839C23.5125 21.3229 23.382 20.9426 23.3618 20.4025L26.9174 20.4052C26.9174 20.4052 27.011 20.4043 27.0206 20.3129C27.0245 20.2751 27.1424 19.5838 26.9144 18.7849L26.9119 18.7843ZM15.7051 21.8447C15.5658 21.7336 15.5465 21.7064 15.5003 21.6341C15.4299 21.5254 15.3939 21.3708 15.3939 21.1728C15.3939 20.8622 15.4974 20.6372 15.7112 20.4864C15.7089 20.4869 16.0172 20.2209 16.7419 20.2299C17.0644 20.2357 17.3862 20.2631 17.705 20.312V21.9255H17.7055C17.7055 21.9255 17.2554 22.0225 16.7468 22.0531C16.0244 22.0966 15.7049 21.8452 15.7071 21.8459L15.7051 21.8447ZM17.1184 19.3468C16.9743 19.3363 16.7875 19.3311 16.5648 19.3311C16.261 19.3311 15.9662 19.3689 15.6916 19.4432C15.4148 19.5179 15.165 19.6335 14.9512 19.7875C14.7369 19.9404 14.5606 20.1406 14.4359 20.3726C14.3101 20.6066 14.246 20.8811 14.246 21.1917C14.246 21.5067 14.3007 21.779 14.4087 22.0018C14.5145 22.2228 14.6739 22.4139 14.8723 22.5577C15.0696 22.7012 15.3133 22.8075 15.5946 22.8705C15.8737 22.9342 16.1887 22.9663 16.5353 22.9663C16.8998 22.9663 17.2622 22.9357 17.6132 22.8765C17.9122 22.825 18.2101 22.767 18.5066 22.7028C18.625 22.6756 18.7564 22.6398 18.7564 22.6398C18.8442 22.6175 18.8374 22.5237 18.8374 22.5237L18.8354 19.2832C18.8354 18.572 18.6455 18.0432 18.2705 17.7169C17.897 17.3906 17.3501 17.2263 16.6413 17.2263C16.3757 17.2263 15.9459 17.2623 15.6894 17.3139C15.6894 17.3139 14.9152 17.4642 14.5957 17.7144C14.5957 17.7144 14.5255 17.7576 14.5637 17.8555L14.8158 18.5306C14.8471 18.6182 14.9323 18.5882 14.9323 18.5882C14.9323 18.5882 14.9591 18.5777 14.9906 18.559C15.6725 18.1877 16.5366 18.1989 16.5366 18.1989C16.9192 18.1989 17.2162 18.2766 17.4143 18.4285C17.608 18.5772 17.7068 18.802 17.7068 19.2746V19.4247C17.403 19.3806 17.1217 19.3552 17.1217 19.3552L17.1184 19.3468ZM45.698 17.5173C45.7031 17.5054 45.7058 17.4926 45.7059 17.4797C45.706 17.4668 45.7034 17.454 45.6985 17.4421C45.6935 17.4301 45.6862 17.4193 45.6769 17.4103C45.6677 17.4013 45.6567 17.3942 45.6447 17.3895C45.5841 17.3665 45.2824 17.3028 45.0506 17.2884C44.605 17.2605 44.3575 17.3357 44.1347 17.4356C43.9146 17.5348 43.6711 17.6944 43.5361 17.8789L43.5356 17.4469C43.5356 17.3874 43.4936 17.3395 43.4337 17.3395H42.5245C42.4656 17.3395 42.4228 17.3874 42.4228 17.4469V22.7352C42.4229 22.7638 42.4343 22.7912 42.4545 22.8114C42.4747 22.8316 42.5021 22.843 42.5306 22.843H43.4623C43.4908 22.843 43.5182 22.8316 43.5383 22.8114C43.5585 22.7912 43.5698 22.7638 43.5698 22.7352V20.0798C43.5698 19.7242 43.609 19.3709 43.6871 19.1481C43.764 18.9278 43.8687 18.7521 43.9976 18.626C44.1207 18.5043 44.2712 18.414 44.4365 18.3628C44.5916 18.3182 44.7522 18.2957 44.9135 18.2957C45.0992 18.2957 45.3028 18.3434 45.3028 18.3434C45.3713 18.3511 45.4093 18.3092 45.4325 18.2475C45.4935 18.0853 45.6665 17.5994 45.7003 17.5027" fill="black"/>
<path id="Vector_3" fill-rule="evenodd" clip-rule="evenodd" d="M36.9963 15.0766C36.8811 15.0418 36.764 15.014 36.6455 14.9933C36.486 14.9667 36.3246 14.9542 36.163 14.9559C35.5209 14.9559 35.0148 15.1373 34.6595 15.4956C34.3067 15.8511 34.0665 16.3928 33.9461 17.1055L33.9027 17.3461H33.0969C33.0969 17.3461 32.9985 17.342 32.9778 17.4493L32.8455 18.1875C32.8363 18.2581 32.8666 18.3022 32.9612 18.3018H33.7456L32.9497 22.7447C32.8873 23.1025 32.816 23.3968 32.737 23.6199C32.6592 23.8399 32.5831 24.0049 32.4895 24.1246C32.3988 24.2405 32.3128 24.3258 32.1645 24.3755C32.0421 24.4167 31.9012 24.4356 31.7469 24.4356C31.6609 24.4356 31.5466 24.4212 31.4622 24.4043C31.3778 24.3877 31.3339 24.3688 31.2707 24.3422C31.2707 24.3422 31.1786 24.3071 31.1424 24.3994C31.1129 24.4748 30.9039 25.0497 30.8791 25.1208C30.8539 25.1911 30.8892 25.2464 30.9338 25.2624C31.0382 25.2998 31.1159 25.3236 31.2581 25.3571C31.4557 25.4037 31.6222 25.4066 31.7781 25.4066C32.1049 25.4066 32.4026 25.3607 32.6495 25.2716C32.8979 25.1818 33.1142 25.0254 33.3055 24.8137C33.5123 24.5853 33.6423 24.346 33.7668 24.0197C33.8899 23.6964 33.9947 23.2949 34.0787 22.8271L34.8785 18.3018H36.0478C36.0478 18.3018 36.1463 18.3054 36.1668 18.1985L36.2991 17.4604C36.3083 17.3897 36.2782 17.3456 36.1832 17.3461H35.0484C35.054 17.3204 35.1055 16.9212 35.2358 16.5454C35.2914 16.3849 35.3961 16.2555 35.4847 16.1666C35.5675 16.082 35.6695 16.0185 35.782 15.9817C35.9053 15.9435 36.0339 15.925 36.163 15.9267C36.2699 15.9267 36.3747 15.9396 36.4546 15.9562C36.5647 15.9796 36.6074 15.992 36.6362 16.0006C36.7519 16.0359 36.7674 16.0017 36.7902 15.9457L37.0615 15.2003C37.0895 15.1202 37.0215 15.0865 36.9963 15.0766ZM21.1371 22.7541C21.1371 22.8135 21.0947 22.8619 21.0353 22.8619H20.094C20.0344 22.8619 19.9921 22.8135 19.9921 22.7541V15.1776C19.9921 15.1184 20.0344 15.0705 20.094 15.0705H21.0353C21.0947 15.0705 21.1371 15.1184 21.1371 15.1776V22.7541Z" fill="black"/>
</g>
</svg>
