<svg width="88" height="21" viewBox="0 0 88 21" fill="none" xmlns="http://www.w3.org/2000/svg">
<g id="Group">
<path id="Vector" d="M85.6274 0.737152L80.8469 10.9639L79.0492 7.08892H77.1051L80.0613 13.4274H81.6326L87.5582 0.737152H85.6274Z" fill="white"/>
<path id="Vector_2" d="M65.1204 19.7259H68.9688V12.6817C68.9688 11.0704 69.9009 9.93854 71.2858 9.93854C72.6174 9.93854 73.3098 10.8707 73.3098 12.2156V19.7259H77.1582V11.4832C77.1582 8.68683 75.4803 6.71605 72.7639 6.71605C71.0328 6.71605 69.821 7.46176 68.9155 8.81999H68.8356V7.08891H65.1071L65.1204 19.7259ZM57.5569 6.74269C53.5354 6.74269 50.8456 9.63227 50.8456 13.4407C50.8456 17.2224 53.5354 20.1387 57.5569 20.1387C61.5784 20.1387 64.2682 17.2224 64.2682 13.4407C64.2815 9.63227 61.5784 6.74269 57.5569 6.74269ZM57.5303 17.289C55.706 17.289 54.7339 15.7577 54.7339 13.4407C54.7339 11.097 55.6927 9.59233 57.5303 9.59233C59.3546 9.59233 60.3666 11.097 60.3666 13.4407C60.3799 15.7577 59.3679 17.289 57.5303 17.289ZM39.8732 19.7259H50.6858V16.6898H44.5604V16.6099L50.4195 10.0451V7.07559H39.8732V10.125H45.7988V10.2049L39.8732 16.823V19.7259ZM34.9329 19.7259H38.8079V7.08891H34.9329V19.7259ZM25.9446 19.7259H29.8062V13.92C29.8062 11.2835 31.3908 10.1117 33.801 10.4446H33.8809V7.11554C33.6812 7.03564 33.4548 7.02232 33.0953 7.02232C31.5906 7.02232 30.5785 7.71476 29.713 9.19284H29.6331V7.08891H25.9446V19.7259ZM18.8604 17.3023C17.1559 17.3023 16.1173 16.1971 15.9176 14.4926H25.0257C25.0524 11.7762 24.3333 9.60564 22.8286 8.2474C21.7633 7.26201 20.3651 6.71605 18.5808 6.71605C14.7724 6.71605 12.1358 9.60564 12.1358 13.3874C12.1358 17.1958 14.6525 20.0987 18.8338 20.0987C20.4184 20.0987 21.6701 19.6726 22.7087 18.9668C23.814 18.2078 24.6129 17.0893 24.826 15.984H21.1241C20.7646 16.8096 19.9923 17.3023 18.8604 17.3023ZM18.6607 9.47248C20.0189 9.47248 20.951 10.4845 21.1108 11.9626H15.9442C16.2505 10.4712 17.0627 9.47248 18.6607 9.47248ZM4.4391 19.7259H8.48719L12.8815 7.08891H9.00651L6.54304 15.2117H6.48978L4.0263 7.08891H0.0447998L4.4391 19.7259ZM34.9329 2.58807H38.8079V6.02362H34.9329V2.58807Z" fill="white"/>
</g>
</svg>
